HIERARCHY
ROOT Hips
{
  OFFSET 0.0 0.0 0.0
  CHANNELS 6 Xposition Yposition Zposition Zrotation Xrotation Yrotation
  JOINT LeftHip
  {
    OFFSET 3.43 0 0
    CHANNELS 3 Zrotation Xrotation Yrotation
    JOINT LeftKnee
    {
      OFFSET 0 -18.47 0
      CHANNELS 3 Zrotation Xrotation Yrotation
      JOINT LeftAnkle
      {
        OFFSET 0 -17.95 0
        CHANNELS 3 Zrotation Xrotation Yrotation
        End Site
        {
          OFFSET 0 -3.12 0
        }
      }
    }
  }
  JOINT RightHip
  {
    OFFSET -3.43 0 0
    CHANNELS 3 Zrotation Xrotation Yrotation
    JOINT RightKnee
    {
      OFFSET 0 -18.47 0
      CHANNELS 3 Zrotation Xrotation Yrotation
      JOINT RightAnkle
      {
        OFFSET 0 -17.95 0
        CHANNELS 3 Zrotation Xrotation Yrotation
        End Site
        {
          OFFSET 0 -3.12 0
        }
      }
    }
  }
  JOINT Chest
  {
    OFFSET 0 4.57 0
    CHANNELS 3 Zrotation Xrotation Yrotation
    JOINT CS_BVH
    {
      OFFSET 0 6.57 0
      CHANNELS 3 Zrotation Xrotation Yrotation
      JOINT LeftCollar
      {
        OFFSET 1.06 4.19 1.76
        CHANNELS 3 Zrotation Xrotation Yrotation
        JOINT LeftShoulder
        {
          OFFSET 5.81 0 0
          CHANNELS 3 Zrotation Xrotation Yrotation
          JOINT LeftElbow
          {
            OFFSET 0 -12.08 0
            CHANNELS 3 Zrotation Xrotation Yrotation
            JOINT LeftWrist
            {
              OFFSET 0 -9.82 0
              CHANNELS 3 Zrotation Xrotation Yrotation
              End Site
              {
                OFFSET 0 -7.37 0
              }
            }
          }
        }
      }
      JOINT RightCollar
      {
        OFFSET -1.06 4.19 1.76
        CHANNELS 3 Zrotation Xrotation Yrotation
        JOINT RightShoulder
        {
          OFFSET -6.06 0 0
          CHANNELS 3 Zrotation Xrotation Yrotation
          JOINT RightElbow
          {
            OFFSET 0 -11.08 0
            CHANNELS 3 Zrotation Xrotation Yrotation
            JOINT RightWrist
            {
              OFFSET 0 -9.82 0
              CHANNELS 3 Zrotation Xrotation Yrotation
              End Site
              {
                OFFSET 0 -7.14001 0
              }
            }
          }
        }
      }
      JOINT Neck
      {
        OFFSET 0 4.05 0
        CHANNELS 3 Zrotation Xrotation Yrotation
        JOINT Head
        {
          OFFSET 0 5.19 0
          CHANNELS 3 Zrotation Xrotation Yrotation
          End Site
          {
            OFFSET 0 4.14001 0
          }
        }
      }
    }
  }
}
MOTION
Frames:	11
Frame Time:	0.0333333
13.7912 37.7394 -9.00195 -0.855081 6.27233 31.4396 -4.13895 -11.8236 12.4752 0.0240359 42.2592 -0.306953 1.2032 -27.4218 10.9523 -1.7564 -30.7637 -14.574 0.018042 41.9943 -0.044095 -9.38788 -27.4457 -34.2121 0.0899965 -8.93635 -9.59952 -2.13694 2.79084 -2.58016 10 -5.92627e-014 1.10698e-014 14.4396 -13.9426 -31.0965 141.793 -38.6663 106.19 -3.34406 4.06774 75.8827 -10 -5.80079e-014 -8.82728e-015 -0.466232 19.801 2.14392 -130.175 -44.1923 -98.5506 1.21908 3.66124 -39.3322 -3.62653 -6.35408 -5.71956 -1.39251 28.2545 -10.2978 
14.2417 37.3976 -7.80189 -2.5275 4.95874 25.1726 4.67626 -18.8141 20.526 0.101139 60.9412 -0.237889 -2.39656 -18.3072 2.85413 3.33284 -29.5821 -10.6393 0.0143119 43.2567 -0.434244 -7.72498 -27.8204 -30.8621 3.48484 -9.02201 -8.89158 -2.23064 2.99981 -2.41421 10 -5.92627e-014 1.10698e-014 12.4643 -6.44306 -24.9999 140.846 -39.4229 105.525 -3.42152 4.08432 76.9438 -10 -5.80079e-014 -8.82728e-015 -0.312289 26.6807 -9.48983 -128.264 -45.2477 -97.0587 1.01247 3.38085 -35.845 -2.2021 -6.30978 -4.78133 -4.1715 29.3351 -7.84223 
14.4566 36.7874 -6.90584 -5.44343 3.909 16.8087 19.1566 -28.6233 29.8312 0.826484 82.9476 -0.91041 -3.4883 -8.65107 -3.60611 9.52191 -29.2392 -7.1277 0.0101456 45.972 -0.639229 -5.86372 -28.919 -25.9468 8.30364 -8.24999 -8.68285 -2.58135 2.6527 -2.43796 10 -5.92627e-014 1.10698e-014 7.04011 3.62909 -23.4141 138.014 -41.5391 103.487 -2.96649 3.96498 70.6397 -10 -5.80079e-014 -8.82728e-015 -0.324025 30.126 -14.3261 -122.757 -47.8918 -92.6613 0.790121 3.03268 -31.7102 -1.38576 -6.17412 -3.23032 -5.14642 29.297 -4.57363 
14.9884 36.3764 -6.23977 -5.46104 4.08081 8.74665 22.9009 -37.1255 26.1979 174.684 88.6349 -174.838 -3.12225 -8.31154 1.58393 11.2005 -29.9333 -4.17341 0.0144789 50.7344 -0.415807 -5.51521 -31.6034 -22.194 9.14326 -7.16958 -8.74073 -2.35612 2.86744 -2.51904 10 -5.92627e-014 1.10698e-014 0.25475 8.29771 -26.397 126.979 -47.9614 95.0265 -2.48491 3.7772 63.7123 -10 -5.80079e-014 -8.82728e-015 2.22917 31.1991 -15.8516 -115.125 -50.7192 -86.3797 0.543414 2.56556 -26.4249 -0.604162 -6.83541 -2.13453 -6.37544 29.1886 -2.13465 
15.5472 36.3964 -5.54964 -4.17045 3.84682 0.893952 24.3718 -41.4916 18.7669 2.00986 86.7721 -2.21916 -2.9432 -9.0465 2.58021 11.12 -28.2962 -1.34452 0.0172419 51.748 0.0485056 -4.43095 -31.9773 -19.4721 8.07609 -5.43421 -9.31065 -1.45828 2.88177 -2.76872 10 -5.92627e-014 1.10698e-014 -2.80477 4.40025 -32.7222 100.15 -55.4313 72.5806 -2.03808 3.53805 56.921 -10 -5.80079e-014 -8.82728e-015 5.2813 32.0983 -10.1351 -106.823 -52.8939 -79.3723 0.253782 1.81781 -18.4043 -0.392131 -7.41186 -1.42764 -7.92861 28.3092 -0.416517 
15.9521 36.6503 -5.01579 -2.37851 3.42618 -7.72951 27.146 -40.6448 15.7769 0.249029 72.5162 -0.468311 -2.61202 -9.2911 6.64017 10.3763 -26.2047 1.72778 0.0213453 50.9556 0.382958 -3.01034 -31.3119 -15.9509 6.25375 -3.05468 -10.813 -1.49926 2.35974 -3.20882 10 -5.92627e-014 1.10698e-014 -4.14806 -6.55002 -36.738 72.5278 -55.5951 48.6432 -1.83195 3.40315 53.6218 -10 -5.80079e-014 -8.82728e-015 6.29991 32.4431 2.58486 -98.339 -54.3189 -72.0901 0.14658 1.42048 -14.2928 -0.626445 -8.47965 -0.572772 -8.29996 27.012 1.33591 
16.2844 36.9524 -4.63061 -0.199378 3.84501 -15.5862 30.3581 -37.5438 15.4804 0.0619299 54.2283 -0.228524 -3.11977 -4.19529 1.13966 8.51456 -25.674 3.25293 0.0253136 49.4095 0.389563 -1.32445 -30.3097 -11.2748 3.59402 -2.48835 -13.4005 -1.60388 1.75017 -3.89041 10 -5.92627e-014 1.10698e-014 -4.79232 -16.4616 -33.2919 62.0716 -53.8751 39.684 -1.71463 3.31847 51.6843 -10 -5.80079e-014 -8.82728e-015 6.14577 31.3178 13.7626 -94.7193 -54.7111 -68.9593 0.0893596 1.14227 -11.4563 -0.235448 -8.70607 0.342146 -9.59898 25.6359 3.27643 
16.7879 37.2041 -4.21019 2.17737 4.00073 -22.8628 28.8257 -34.1738 10.5072 0.0224125 41.4665 -0.103884 -3.38774 5.18791 1.35004 6.93135 -26.32 6.06911 0.0286003 49.4765 0.204287 -0.112634 -30.0888 -7.5532 0.950552 -2.88523 -15.096 -1.56327 1.33968 -4.26005 10 -5.92627e-014 1.10698e-014 -4.05253 -25.7594 -24.2817 53.7674 -51.6519 32.7056 -1.76518 3.3557 52.5248 -10 -5.80079e-014 -8.82728e-015 5.9365 30.5275 21.978 -94.2383 -54.7541 -68.5424 0.0858341 1.12152 -11.2459 0.976968 -8.58748 1.25384 -12.3313 24.8156 5.41839 
17.6435 37.1126 -3.45829 3.71723 2.68505 -28.4509 25.2177 -31.7409 10.3699 0.0253972 42.9502 -0.155645 -4.24289 2.33607 6.78 4.58435 -26.9716 8.26755 0.0333656 52.2302 0.172159 0.571241 -31.1304 -5.48389 -0.333586 -2.29014 -15.3318 -2.03739 1.25907 -4.28997 10 -5.92627e-014 1.10698e-014 -0.807865 -37.3852 -15.0707 39.819 -45.6503 21.4737 -1.58522 3.21776 49.4887 -10 -5.80079e-014 -8.82728e-015 6.84061 29.9914 27.1751 -96.6351 -54.5188 -70.6176 0.114536 1.27338 -12.7894 1.20201 -8.17309 1.63704 -12.1313 23.6117 5.95414 
18.4343 37.0169 -2.80869 6.13738 1.74854 -31.5465 19.9833 -30.687 8.57254 0.0254 42.9693 -0.201026 -4.3061 -1.51967 10.7043 0.101916 -29.1554 7.24363 0.0396834 55.176 0.129833 1.49922 -32.4514 -2.89555 -2.77113 -2.67604 -16.8083 -1.51212 0.602545 -4.67684 10 -5.92627e-014 1.10698e-014 3.83664 -42.753 -9.65928 31.6661 -40.3458 15.3773 -1.35181 3.0144 45.3434 -10 -5.80079e-014 -8.82728e-015 5.25032 28.6726 32.9459 -99.8664 -54.116 -73.4075 0.170072 1.51801 -15.2947 1.19183 -8.00365 2.21509 -13.1015 23.03 7.22877 
18.9449 37.039 -2.41782 8.00243 1.55054 -33.4389 17.0136 -29.9339 6.93803 0.0227255 41.762 -0.23288 -3.98492 -4.12223 11.8359 -2.72363 -31.0701 5.38603 0.0429762 56.3977 0.101158 1.60587 -32.0187 -2.65033 -4.47607 -3.35641 -16.5531 -1.89812 -0.0378597 -4.57254 10 -5.92627e-014 1.10698e-014 3.34972 -41.2597 -10.2289 31.0655 -39.8887 14.9476 -1.39138 3.05102 46.0651 -10 -5.80079e-014 -8.82728e-015 5.23539 25.4353 35.3069 -103.15 -53.6013 -76.2335 0.189527 1.59359 -16.0742 0.515384 -7.52768 1.99862 -11.8325 21.7776 6.46951 
